HIERARCHY
ROOT Hips
{
    OFFSET 0.000000 0.000000 0.000000
    CHANNELS 6 Xposition Yposition Zposition Zrotation Xrotation Yrotation
    JOINT Spine
    {
        OFFSET -0.000000 7.779526 0.000000
        CHANNELS 3 Zrotation Xrotation Yrotation
        JOINT Spine1
        {
            OFFSET -0.000000 18.737511 0.000000
            CHANNELS 3 Zrotation Xrotation Yrotation
            JOINT Neck
            {
                OFFSET -0.000000 18.660559 1.696414
                CHANNELS 3 Zrotation Xrotation Yrotation
                JOINT Head
                {
                    OFFSET -0.000000 13.282117 -1.897445
                    CHANNELS 3 Zrotation Xrotation Yrotation
                    End Site
                    {
                        OFFSET -0.000000 23.718067 0.000000
                    }
                }
            }
            JOINT LeftShoulder
            {
                OFFSET 3.934798 15.673244 -0.380379
                CHANNELS 3 Zrotation Xrotation Yrotation
                JOINT LeftArm
                {
                    OFFSET 14.289327 0.000000 0.000000
                    CHANNELS 3 Zrotation Xrotation Yrotation
                    JOINT LeftForeArm
                    {
                        OFFSET 26.209503 0.000000 0.000000
                        CHANNELS 3 Zrotation Xrotation Yrotation
                        JOINT LeftHand
                        {
                            OFFSET 27.674961 0.000000 0.000000
                            CHANNELS 3 Zrotation Xrotation Yrotation
                            JOINT LeftHandThumb1
                            {
                                OFFSET 2.371807 -1.423084 4.743613
                                CHANNELS 3 Zrotation Xrotation Yrotation
                                JOINT LeftHandThumb2
                                {
                                    OFFSET 2.846168 0.000000 0.000000
                                    CHANNELS 3 Zrotation Xrotation Yrotation
                                    JOINT LeftHandThumb3
                                    {
                                        OFFSET 2.846168 0.000000 0.000000
                                        CHANNELS 3 Zrotation Xrotation Yrotation
                                        End Site
                                        {
                                            OFFSET 2.700224 0.000000 0.000000
                                        }
                                    }
                                }
                            }
                            JOINT LeftHandIndex1
                            {
                                OFFSET 7.934654 0.000000 3.320529
                                CHANNELS 3 Zrotation Xrotation Yrotation
                                JOINT LeftHandIndex2
                                {
                                    OFFSET 4.743613 0.000000 0.000000
                                    CHANNELS 3 Zrotation Xrotation Yrotation
                                    JOINT LeftHandIndex3
                                    {
                                        OFFSET 2.371807 0.000000 0.000000
                                        CHANNELS 3 Zrotation Xrotation Yrotation
                                        End Site
                                        {
                                            OFFSET 2.250187 0.000000 0.000000
                                        }
                                    }
                                }
                            }
                            JOINT LeftHandMiddle1
                            {
                                OFFSET 7.934654 0.000000 1.100518
                                CHANNELS 3 Zrotation Xrotation Yrotation
                                JOINT LeftHandMiddle2
                                {
                                    OFFSET 5.217975 0.000000 0.000000
                                    CHANNELS 3 Zrotation Xrotation Yrotation
                                    JOINT LeftHandMiddle3
                                    {
                                        OFFSET 2.846168 0.000000 0.000000
                                        CHANNELS 3 Zrotation Xrotation Yrotation
                                        End Site
                                        {
                                            OFFSET 2.700224 0.000000 0.000000
                                        }
                                    }
                                }
                            }
                            JOINT LeftHandRing1
                            {
                                OFFSET 5.640411 0.000000 -1.100518
                                CHANNELS 3 Zrotation Xrotation Yrotation
                                JOINT LeftHandRing2
                                {
                                    OFFSET 4.743613 0.000000 0.000000
                                    CHANNELS 3 Zrotation Xrotation Yrotation
                                    JOINT LeftHandRing3
                                    {
                                        OFFSET 2.371807 0.000000 0.000000
                                        CHANNELS 3 Zrotation Xrotation Yrotation
                                        End Site
                                        {
                                            OFFSET 2.250187 0.000000 0.000000
                                        }
                                    }
                                }
                            }
                            JOINT LeftHandPinky1
                            {
                                OFFSET 3.346169 0.000000 -3.320529
                                CHANNELS 3 Zrotation Xrotation Yrotation
                                JOINT LeftHandPinky2
                                {
                                    OFFSET 3.794891 0.000000 0.000000
                                    CHANNELS 3 Zrotation Xrotation Yrotation
                                    JOINT LeftHandPinky3
                                    {
                                        OFFSET 1.897445 0.000000 0.000000
                                        CHANNELS 3 Zrotation Xrotation Yrotation
                                        End Site
                                        {
                                            OFFSET 1.800149 0.000000 0.000000
                                        }
                                    }
                                }
                            }
                        }
                    }
                }
            }
            JOINT RightShoulder
            {
                OFFSET -3.642510 15.673244 -0.380379
                CHANNELS 3 Zrotation Xrotation Yrotation
                JOINT RightArm
                {
                    OFFSET -14.289327 0.000000 0.000000
                    CHANNELS 3 Zrotation Xrotation Yrotation
                    JOINT RightForeArm
                    {
                        OFFSET -26.209503 0.000000 0.000000
                        CHANNELS 3 Zrotation Xrotation Yrotation
                        JOINT RightHand
                        {
                            OFFSET -27.674961 0.000000 0.000000
                            CHANNELS 3 Zrotation Xrotation Yrotation
                            JOINT RightHandThumb1
                            {
                                OFFSET -2.371807 -1.423084 4.743613
                                CHANNELS 3 Zrotation Xrotation Yrotation
                                JOINT RightHandThumb2
                                {
                                    OFFSET -2.846168 0.000000 0.000000
                                    CHANNELS 3 Zrotation Xrotation Yrotation
                                    JOINT RightHandThumb3
                                    {
                                        OFFSET -2.846168 0.000000 0.000000
                                        CHANNELS 3 Zrotation Xrotation Yrotation
                                        End Site
                                        {
                                            OFFSET -2.700224 0.000000 0.000000
                                        }
                                    }
                                }
                            }
                            JOINT RightHandIndex1
                            {
                                OFFSET -7.934654 0.000000 3.320529
                                CHANNELS 3 Zrotation Xrotation Yrotation
                                JOINT RightHandIndex2
                                {
                                    OFFSET -4.743613 0.000000 0.000000
                                    CHANNELS 3 Zrotation Xrotation Yrotation
                                    JOINT RightHandIndex3
                                    {
                                        OFFSET -2.371807 0.000000 0.000000
                                        CHANNELS 3 Zrotation Xrotation Yrotation
                                        End Site
                                        {
                                            OFFSET -2.250187 0.000000 0.000000
                                        }
                                    }
                                }
                            }
                            JOINT RightHandMiddle1
                            {
                                OFFSET -7.934654 0.000000 1.100518
                                CHANNELS 3 Zrotation Xrotation Yrotation
                                JOINT RightHandMiddle2
                                {
                                    OFFSET -5.217975 0.000000 0.000000
                                    CHANNELS 3 Zrotation Xrotation Yrotation
                                    JOINT RightHandMiddle3
                                    {
                                        OFFSET -2.846168 0.000000 0.000000
                                        CHANNELS 3 Zrotation Xrotation Yrotation
                                        End Site
                                        {
                                            OFFSET -2.700224 0.000000 0.000000
                                        }
                                    }
                                }
                            }
                            JOINT RightHandRing1
                            {
                                OFFSET -5.640411 0.000000 -1.100518
                                CHANNELS 3 Zrotation Xrotation Yrotation
                                JOINT RightHandRing2
                                {
                                    OFFSET -4.743613 0.000000 0.000000
                                    CHANNELS 3 Zrotation Xrotation Yrotation
                                    JOINT RightHandRing3
                                    {
                                        OFFSET -2.371807 0.000000 0.000000
                                        CHANNELS 3 Zrotation Xrotation Yrotation
                                        End Site
                                        {
                                            OFFSET -2.250187 0.000000 0.000000
                                        }
                                    }
                                }
                            }
                            JOINT RightHandPinky1
                            {
                                OFFSET -3.346169 0.000000 -3.320529
                                CHANNELS 3 Zrotation Xrotation Yrotation
                                JOINT RightHandPinky2
                                {
                                    OFFSET -3.794891 0.000000 0.000000
                                    CHANNELS 3 Zrotation Xrotation Yrotation
                                    JOINT RightHandPinky3
                                    {
                                        OFFSET -1.897445 0.000000 0.000000
                                        CHANNELS 3 Zrotation Xrotation Yrotation
                                        End Site
                                        {
                                            OFFSET -1.800149 0.000000 0.000000
                                        }
                                    }
                                }
                            }
                        }
                    }
                }
            }
        }
    }
    JOINT LeftUpLeg
    {
        OFFSET 9.487226 0.000000 0.000000
        CHANNELS 3 Zrotation Xrotation Yrotation
        JOINT LeftLeg
        {
            OFFSET -0.000000 -48.946892 0.000000
            CHANNELS 3 Zrotation Xrotation Yrotation
            JOINT LeftFoot
            {
                OFFSET -0.000000 -35.104492 0.000000
                CHANNELS 3 Zrotation Xrotation Yrotation
                JOINT LeftToeBase
                {
                    OFFSET -0.000000 -6.166697 14.230840
                    CHANNELS 3 Zrotation Xrotation Yrotation
                    End Site
                    {
                        OFFSET -0.000000 0.000000 3.794891
                    }
                }
            }
        }
    }
    JOINT RightUpLeg
    {
        OFFSET -9.487226 0.000000 0.000000
        CHANNELS 3 Zrotation Xrotation Yrotation
        JOINT RightLeg
        {
            OFFSET -0.000000 -48.946892 0.000000
            CHANNELS 3 Zrotation Xrotation Yrotation
            JOINT RightFoot
            {
                OFFSET -0.000000 -35.104492 0.000000
                CHANNELS 3 Zrotation Xrotation Yrotation
                JOINT RightToeBase
                {
                    OFFSET -0.000000 -6.166697 14.230840
                    CHANNELS 3 Zrotation Xrotation Yrotation
                    End Site
                    {
                        OFFSET -0.000000 0.000000 3.794891
                    }
                }
            }
        }
    }
}
MOTION
Frames:    4
Frame Time:    0.008333
35.118057    84.416252    -60.416241    12.842800    22.652523    -37.182491    -8.971603    -10.232103    -4.526408    6.522063    9.115273    -4.241875    12.477931    2.360017    14.599025    -22.480839    -4.260857    9.597414    23.698910    -3.441443    -3.553986    11.725374    65.904343    -26.397289    42.242546    -44.932835    -66.157867    -11.566369    -5.726595    -28.792223    -5.909114    -0.569889    5.489191    -0.000000    0.000000    2.759302    -0.000000    0.000000    5.518604    -31.438070    7.540680    -12.115726    -64.478943    0.000000    0.000000    -32.239471    0.000000    0.000000    -22.013428    3.801765    -5.800708    -44.509335    0.000000    0.000000    -22.254662    0.000000    0.000000    -12.259818    1.162715    1.024677    -24.539715    0.000000    0.000000    -12.269856    0.000000    0.000000    -1.961127    -0.290263    8.415850    -3.964966    0.000000    0.000000    -1.982483    0.000000    0.000000    -10.842697    4.592911    -5.907579    40.575214    29.617622    -7.100641    -45.217129    -36.431648    90.775795    15.421339    -18.347662    9.321544    14.734695    0.074969    0.285057    0.000000    0.000000    0.000000    0.000000    0.000000    0.000000    16.471689    1.825955    6.150744    33.139599    0.000000    -0.000000    16.569799    0.000000    -0.000000    18.616886    0.691162    2.489658    37.260727    0.000000    -0.000000    18.630363    0.000000    -0.000000    20.685230    -0.577457    -1.126355    41.381844    0.000000    -0.000000    20.690929    0.000000    -0.000000    22.729305    -2.017410    -4.803572    45.627861    0.000000    -0.000000    22.813931    0.000000    -0.000000    17.450966    -37.335670    19.318316    -14.576678    51.669044    3.900824    0.764274    -33.619335    26.502842    -0.068255    -5.787644    0.222236    9.259076    -48.175652    18.187037    39.411995    64.397713    -15.575533    -0.615004    -11.536924    -31.412525    1.745887    -12.668586    -6.308712
34.855068    85.255249    -60.142822    12.666226    22.463728    -37.840038    -8.693794    -10.404146    -4.745347    6.272279    9.002079    -4.446457    12.383559    2.298324    14.874410    -22.047321    -2.967977    10.217249    23.237232    -3.458738    -4.136910    11.487271    68.710518    -29.016317    42.818657    -44.154697    -66.236603    -12.018871    -6.184180    -29.206697    -5.556726    -0.705773    7.215866    -0.000000    0.000000    3.625058    -0.000000    0.000000    7.250118    -31.572548    7.645684    -12.215819    -64.783821    0.000000    0.000000    -32.391899    0.000000    0.000000    -22.550911    3.886430    -6.026981    -45.609512    0.000000    0.000000    -22.804760    0.000000    0.000000    -13.201229    1.159037    0.658017    -26.435211    0.000000    0.000000    -13.217607    0.000000    0.000000    -3.308117    -0.460218    7.911252    -6.679881    0.000000    0.000000    -3.339941    0.000000    0.000000    -9.913038    4.838515    -6.099989    43.202023    36.133659    -6.465535    -46.549538    -35.652771    87.642174    16.873243    -17.703850    8.922784    14.587001    -0.942510    -3.616746    0.000000    0.000000    -1.868689    0.000000    0.000000    -3.737379    16.750278    1.237164    4.103225    33.589195    0.000000    -0.000000    16.794600    0.000000    -0.000000    18.378536    0.203722    0.912380    36.760677    0.000000    -0.000000    18.380344    0.000000    -0.000000    19.946943    -0.918331    -2.248209    39.932163    0.000000    -0.000000    19.966082    0.000000    -0.000000    21.496504    -2.162582    -5.473008    43.199757    0.000000    -0.000000    21.599880    0.000000    -0.000000    17.017715    -35.797417    18.369902    -13.780718    49.129063    3.962226    -0.142230    -32.410187    26.230183    -0.092957    -5.905334    0.303584    8.882543    -48.497070    17.367842    41.241447    64.956177    -17.127653    0.799127    -11.950655    -29.675953    1.543902    -13.377432    -5.700901
34.523663    86.121284    -59.905861    12.321041    22.154417    -38.648994    -8.482405    -10.291167    -4.917610    6.068696    8.756589    -4.617357    12.443855    2.610934    15.117990    -21.771706    -2.138011    10.704125    23.003839    -3.005265    -4.135621    11.717448    70.638359    -32.943314    42.880600    -43.082710    -66.129051    -12.976477    -6.265279    -29.698000    -4.465842    -0.772494    9.794030    -0.000000    0.000000    4.912075    -0.000000    0.000000    9.824152    -31.550735    7.549942    -12.078227    -64.701248    0.000000    0.000000    -32.350624    0.000000    0.000000    -22.477564    3.899455    -6.235116    -45.480537    0.000000    0.000000    -22.740269    0.000000    0.000000    -13.104297    1.228606    0.095001    -26.259838    0.000000    0.000000    -13.129919    0.000000    0.000000    -3.204402    -0.392653    6.978673    -6.456690    0.000000    0.000000    -3.228345    0.000000    0.000000    -8.829611    5.059821    -6.153155    45.652760    42.137867    -5.934427    -47.656185    -34.052616    84.049377    16.856783    -16.452814    7.803569    14.587001    -0.942510    -3.616746    0.000000    0.000000    -1.868689    0.000000    0.000000    -3.737379    16.232452    1.175772    4.031543    32.547680    0.000000    -0.000000    16.273840    0.000000    -0.000000    17.976578    0.218502    0.986176    35.957062    0.000000    -0.000000    17.978527    0.000000    -0.000000    19.667545    -0.829625    -2.028949    39.366459    0.000000    -0.000000    19.683224    0.000000    -0.000000    21.350420    -2.000524    -5.103189    42.879154    0.000000    -0.000000    21.439579    0.000000    -0.000000    16.812557    -33.967007    17.613817    -13.069230    46.558075    3.977794    -1.113320    -31.138599    26.163162    -0.058767    -6.054007    0.192673    8.876410    -48.600334    17.028061    43.514885    65.703506    -19.367079    1.616969    -13.235032    -28.057529    1.672699    -13.485262    -6.196165
34.168133    87.005104    -59.699894    12.063503    21.954323    -39.385685    -8.315555    -10.300890    -5.211603    5.771470    8.617680    -4.895904    12.637859    2.959502    15.478676    -21.632345    -1.504519    11.240338    22.979507    -2.513455    -4.076337    10.243230    71.772224    -35.443783    42.341484    -41.190350    -66.375511    -13.013807    -6.275809    -30.152735    -4.528026    -0.883103    11.013043    -0.000000    0.000000    5.523979    -0.000000    0.000000    11.047958    -32.225742    7.592606    -11.838242    -66.028130    0.000000    0.000000    -33.014065    0.000000    0.000000    -23.619587    3.968410    -6.303064    -47.771935    0.000000    0.000000    -23.885969    0.000000    0.000000    -14.727384    1.224482    -0.302794    -29.515743    0.000000    0.000000    -14.757872    0.000000    0.000000    -5.321327    -0.583856    6.243472    -10.706342    0.000000    0.000000    -5.353170    0.000000    0.000000    -7.625048    5.166664    -6.217428    48.000233    47.578144    -5.553676    -46.355083    -32.512012    81.351006    17.033094    -13.796214    6.299311    13.804776    -2.114320    -8.539130    0.000000    0.000000    -4.397555    0.000000    0.000000    -8.795110    14.460322    0.978092    3.787126    28.985321    0.000000    -0.000000    14.492661    0.000000    -0.000000    16.664631    0.139412    0.873527    33.331718    0.000000    -0.000000    16.665859    0.000000    -0.000000    18.823669    -0.809591    -2.005943    37.678120    0.000000    -0.000000    18.839058    0.000000    -0.000000    20.996290    -1.898797    -4.934352    42.156227    0.000000    -0.000000    21.078112    0.000000    -0.000000    16.492161    -32.373001    16.776863    -12.075467    44.157131    4.630788    -2.775307    -29.700924    25.162579    0.012183    -6.536290    -0.040438    8.819016    -48.872940    16.758810    46.273396    66.389580    -22.290850    2.330862    -14.365041    -26.760984    1.814734    -12.657300    -6.554792
